<svg xmlns="http://www.w3.org/2000/svg" viewBox="0 0 372.45 1457.5500000000002" width="372.45" height="1457.5500000000002" style="--bg:#FFFFFF;--fg:#27272A;background:var(--bg)">
<style>
  @import url('https://fonts.googleapis.com/css2?family=Inter:wght@400;500;600;700&amp;display=swap');
  text { font-family: 'Inter', system-ui, sans-serif; }
  svg {
    /* Derived from --bg and --fg (overridable via --line, --accent, etc.) */
    --_text:          var(--fg);
    --_text-sec:      var(--muted, color-mix(in srgb, var(--fg) 60%, var(--bg)));
    --_text-muted:    var(--muted, color-mix(in srgb, var(--fg) 40%, var(--bg)));
    --_text-faint:    color-mix(in srgb, var(--fg) 25%, var(--bg));
    --_line:          var(--line, color-mix(in srgb, var(--fg) 30%, var(--bg)));
    --_arrow:         var(--accent, color-mix(in srgb, var(--fg) 50%, var(--bg)));
    --_node-fill:     var(--surface, color-mix(in srgb, var(--fg) 3%, var(--bg)));
    --_node-stroke:   var(--border, color-mix(in srgb, var(--fg) 20%, var(--bg)));
    --_group-fill:    var(--bg);
    --_group-hdr:     color-mix(in srgb, var(--fg) 5%, var(--bg));
    --_inner-stroke:  color-mix(in srgb, var(--fg) 12%, var(--bg));
    --_key-badge:     color-mix(in srgb, var(--fg) 10%, var(--bg));
  }
</style>
<defs>
  <marker id="arrowhead" markerWidth="8" markerHeight="4.8" refX="8" refY="2.4" orient="auto">
    <polygon points="0 0, 8 2.4, 0 4.8" fill="var(--_arrow)" />
  </marker>
  <marker id="arrowhead-start" markerWidth="8" markerHeight="4.8" refX="0" refY="2.4" orient="auto-start-reverse">
    <polygon points="8 0, 0 2.4, 8 4.8" fill="var(--_arrow)" />
  </marker>
</defs>
<polyline points="234.825,76 234.825,116" fill="none" stroke="var(--_line)" stroke-width="0.75" marker-end="url(#arrowhead)" />
<polyline points="211.55641455859575,220.23141455859576 211.55641455859575,272 181.79999999999998,272 181.79999999999998,300.5" fill="none" stroke="var(--_line)" stroke-width="0.75" marker-end="url(#arrowhead)" />
<polyline points="258.09358544140423,220.23141455859576 258.09358544140423,272 287.85,272 287.85,300.5" fill="none" stroke="var(--_line)" stroke-width="0.75" marker-end="url(#arrowhead)" />
<polyline points="181.79999999999998,336.5 181.79999999999998,376.5" fill="none" stroke="var(--_line)" stroke-width="0.75" marker-end="url(#arrowhead)" />
<polyline points="181.79999999999998,412.5 181.79999999999998,452.5" fill="none" stroke="var(--_line)" stroke-width="0.75" marker-end="url(#arrowhead)" />
<polyline points="181.79999999999998,488.5 181.79999999999998,528.5" fill="none" stroke="var(--_line)" stroke-width="0.75" marker-end="url(#arrowhead)" />
<polyline points="181.79999999999998,564.5 181.79999999999998,604.5" fill="none" stroke="var(--_line)" stroke-width="0.75" marker-end="url(#arrowhead)" />
<polyline points="161.975415155564,676.425415155564 161.975415155564,724.75 125.19999999999999,724.75 125.19999999999999,753.25" fill="none" stroke="var(--_line)" stroke-width="0.75" marker-end="url(#arrowhead)" />
<polyline points="201.62458484443596,676.425415155564 201.62458484443596,724.75 238.39999999999998,724.75 238.39999999999998,753.25" fill="none" stroke="var(--_line)" stroke-width="0.75" marker-end="url(#arrowhead)" />
<polyline points="125.19999999999999,789.25 125.19999999999999,817.75 111.76999999999998,817.75 111.76999999999998,855.2505191536223 116.19948084637771,855.2505191536223" fill="none" stroke="var(--_line)" stroke-width="0.75" marker-end="url(#arrowhead)" />
<polyline points="134.20051915362225,855.2505191536223 134.20051915362225,817.75 138.63,817.75 138.63,771.25 162.64999999999998,771.25" fill="none" stroke="var(--_line)" stroke-width="0.75" marker-end="url(#arrowhead)" />
<polyline points="125.19999999999999,1016.6500000000001 125.19999999999999,1073.65" fill="none" stroke="var(--_line)" stroke-width="0.75" marker-end="url(#arrowhead)" />
<polyline points="125.19999999999999,1109.65 125.19999999999999,1149.65" fill="none" stroke="var(--_line)" stroke-width="0.75" marker-end="url(#arrowhead)" />
<polyline points="138.80300381288941,1234.9469961871107 138.80300381288941,1277.0500000000002 154.78,1277.0500000000002 154.78,1305.5500000000002" fill="none" stroke="var(--_line)" stroke-width="0.75" marker-end="url(#arrowhead)" />
<polyline points="111.59699618711058,1234.9469961871107 111.59699618711058,1277.0500000000002 95.62,1277.0500000000002 95.62,1399.5500000000002 94.89999999999999,1399.5500000000002" fill="none" stroke="var(--_line)" stroke-width="0.75" marker-end="url(#arrowhead)" />
<polyline points="154.78,1341.5500000000002 154.78,1399.5500000000002 155.5,1399.5500000000002" fill="none" stroke="var(--_line)" stroke-width="0.75" marker-end="url(#arrowhead)" />
<rect x="165.21999999999997" y="258.5" width="33.16" height="27" rx="4" ry="4" fill="var(--bg)" stroke="var(--_inner-stroke)" stroke-width="0.5" />
<text x="181.79999999999998" y="272" text-anchor="middle" dy="0.35em" font-size="11" font-weight="400" fill="var(--_text-muted)">已配置</text>
<rect x="271.27000000000004" y="258.5" width="33.16" height="27" rx="4" ry="4" fill="var(--bg)" stroke="var(--_inner-stroke)" stroke-width="0.5" />
<text x="287.85" y="272" text-anchor="middle" dy="0.35em" font-size="11" font-weight="400" fill="var(--_text-muted)">未配置</text>
<rect x="111.47999999999999" y="711.25" width="27.44" height="27" rx="4" ry="4" fill="var(--bg)" stroke="var(--_inner-stroke)" stroke-width="0.5" />
<text x="125.19999999999999" y="724.75" text-anchor="middle" dy="0.35em" font-size="11" font-weight="400" fill="var(--_text-muted)">轮询</text>
<rect x="224.67999999999998" y="711.25" width="27.44" height="27" rx="4" ry="4" fill="var(--bg)" stroke="var(--_inner-stroke)" stroke-width="0.5" />
<text x="238.39999999999998" y="724.75" text-anchor="middle" dy="0.35em" font-size="11" font-weight="400" fill="var(--_text-muted)">异步</text>
<rect x="127.77" y="804.25" width="21.72" height="27" rx="4" ry="4" fill="var(--bg)" stroke="var(--_inner-stroke)" stroke-width="0.5" />
<text x="138.63" y="817.75" text-anchor="middle" dy="0.35em" font-size="11" font-weight="400" fill="var(--_text-muted)">否</text>
<rect x="114.33999999999999" y="1031.65" width="21.72" height="27" rx="4" ry="4" fill="var(--bg)" stroke="var(--_inner-stroke)" stroke-width="0.5" />
<text x="125.19999999999999" y="1045.15" text-anchor="middle" dy="0.35em" font-size="11" font-weight="400" fill="var(--_text-muted)">是</text>
<rect x="143.92000000000002" y="1263.5500000000002" width="21.72" height="27" rx="4" ry="4" fill="var(--bg)" stroke="var(--_inner-stroke)" stroke-width="0.5" />
<text x="154.78" y="1277.0500000000002" text-anchor="middle" dy="0.35em" font-size="11" font-weight="400" fill="var(--_text-muted)">是</text>
<rect x="84.76" y="1310.0500000000002" width="21.72" height="27" rx="4" ry="4" fill="var(--bg)" stroke="var(--_inner-stroke)" stroke-width="0.5" />
<text x="95.62" y="1323.5500000000002" text-anchor="middle" dy="0.35em" font-size="11" font-weight="400" fill="var(--_text-muted)">否</text>
<rect x="186.64999999999998" y="40" width="96.35000000000001" height="36" rx="0" ry="0" fill="var(--_node-fill)" stroke="var(--_node-stroke)" stroke-width="0.75" />
<polygon points="234.825,116 298.575,179.75 234.825,243.5 171.075,179.75" fill="var(--_node-fill)" stroke="var(--_node-stroke)" stroke-width="0.75" />
<rect x="144.34999999999997" y="300.5" width="74.9" height="36" rx="0" ry="0" fill="var(--_node-fill)" stroke="var(--_node-stroke)" stroke-width="0.75" />
<rect x="243.25000000000003" y="300.5" width="89.2" height="36" rx="0" ry="0" fill="var(--_node-fill)" stroke="var(--_node-stroke)" stroke-width="0.75" />
<rect x="105.02499999999998" y="376.5" width="153.55" height="36" rx="0" ry="0" fill="var(--_node-fill)" stroke="var(--_node-stroke)" stroke-width="0.75" />
<rect x="101.44999999999997" y="452.5" width="160.70000000000002" height="36" rx="0" ry="0" fill="var(--_node-fill)" stroke="var(--_node-stroke)" stroke-width="0.75" />
<rect x="130.04999999999998" y="528.5" width="103.5" height="36" rx="0" ry="0" fill="var(--_node-fill)" stroke="var(--_node-stroke)" stroke-width="0.75" />
<polygon points="181.79999999999998,604.5 227.67499999999998,650.375 181.79999999999998,696.25 135.92499999999998,650.375" fill="var(--_node-fill)" stroke="var(--_node-stroke)" stroke-width="0.75" />
<rect x="87.74999999999999" y="753.25" width="74.9" height="36" rx="0" ry="0" fill="var(--_node-fill)" stroke="var(--_node-stroke)" stroke-width="0.75" />
<rect x="186.64999999999998" y="753.25" width="103.5" height="36" rx="0" ry="0" fill="var(--_node-fill)" stroke="var(--_node-stroke)" stroke-width="0.75" />
<polygon points="125.19999999999999,846.25 210.39999999999998,931.45 125.19999999999999,1016.6500000000001 39.999999999999986,931.45" fill="var(--_node-fill)" stroke="var(--_node-stroke)" stroke-width="0.75" />
<rect x="94.89999999999999" y="1073.65" width="60.6" height="36" rx="0" ry="0" fill="var(--_node-fill)" stroke="var(--_node-stroke)" stroke-width="0.75" />
<polygon points="125.19999999999999,1149.65 174.64999999999998,1199.1000000000001 125.19999999999999,1248.5500000000002 75.74999999999999,1199.1000000000001" fill="var(--_node-fill)" stroke="var(--_node-stroke)" stroke-width="0.75" />
<rect x="124.48" y="1305.5500000000002" width="60.6" height="36" rx="0" ry="0" fill="var(--_node-fill)" stroke="var(--_node-stroke)" stroke-width="0.75" />
<rect x="94.89999999999999" y="1381.5500000000002" width="60.6" height="36" rx="0" ry="0" fill="var(--_node-fill)" stroke="var(--_node-stroke)" stroke-width="0.75" />
<text x="234.825" y="58" text-anchor="middle" dy="0.35em" font-size="13" font-weight="500" fill="var(--_text)">用户请求浏览器任务</text>
<text x="234.825" y="179.75" text-anchor="middle" dy="0.35em" font-size="13" font-weight="500" fill="var(--_text)">检查 API Key</text>
<text x="181.79999999999995" y="318.5" text-anchor="middle" dy="0.35em" font-size="13" font-weight="500" fill="var(--_text)">构建请求参数</text>
<text x="287.85" y="318.5" text-anchor="middle" dy="0.35em" font-size="13" font-weight="500" fill="var(--_text)">提示配置环境变量</text>
<text x="181.79999999999998" y="394.5" text-anchor="middle" dy="0.35em" font-size="13" font-weight="500" fill="var(--_text)">调用 create_task.py</text>
<text x="181.79999999999998" y="470.5" text-anchor="middle" dy="0.35em" font-size="13" font-weight="500" fill="var(--_text)">POST /api/v2/tasks</text>
<text x="181.79999999999998" y="546.5" text-anchor="middle" dy="0.35em" font-size="13" font-weight="500" fill="var(--_text)">获取 task_id</text>
<text x="181.79999999999998" y="650.375" text-anchor="middle" dy="0.35em" font-size="13" font-weight="500" fill="var(--_text)">等待模式?</text>
<text x="125.19999999999999" y="771.25" text-anchor="middle" dy="0.35em" font-size="13" font-weight="500" fill="var(--_text)">循环检查状态</text>
<text x="238.39999999999998" y="771.25" text-anchor="middle" dy="0.35em" font-size="13" font-weight="500" fill="var(--_text)">返回 task_id</text>
<text x="125.19999999999999" y="931.45" text-anchor="middle" dy="0.35em" font-size="13" font-weight="500" fill="var(--_text)">status=finished?</text>
<text x="125.19999999999999" y="1091.65" text-anchor="middle" dy="0.35em" font-size="13" font-weight="500" fill="var(--_text)">返回结果</text>
<text x="125.19999999999999" y="1199.1000000000001" text-anchor="middle" dy="0.35em" font-size="13" font-weight="500" fill="var(--_text)">有输出文件?</text>
<text x="154.78" y="1323.5500000000002" text-anchor="middle" dy="0.35em" font-size="13" font-weight="500" fill="var(--_text)">下载文件</text>
<text x="125.19999999999999" y="1399.5500000000002" text-anchor="middle" dy="0.35em" font-size="13" font-weight="500" fill="var(--_text)">完成任务</text>
</svg>
